<?xml version="1.0" encoding="utf-8"?>
<svg xmlns="http://www.w3.org/2000/svg" xmlns:xlink="http://www.w3.org/1999/xlink">
<symbol id="arrow-right-top" width="14" height="14" viewBox="0 0 14 14" fill="none">
    <path d="M1.21221 0H13.6977V12.4854H12.297V2.39516L0.994515 13.6977L0 12.7037L11.3031 1.40065H1.21221V0Z" fill="black" />
</symbol>

<symbol id="star-01" width="41" height="68" viewBox="0 0 41 68" fill="none">
    <path d="M19.8408 68H19.5749C19.0953 67.9342 18.6581 67.6909 18.3502 67.3185C18.0423 66.9461 17.8863 66.4718 17.913 65.99C18.5445 55.5973 11.886 44.6965 0.950799 38.1914C0.661293 38.0217 0.421265 37.7796 0.254495 37.4891C0.087726 37.1985 0 36.8695 0 36.5348C0 36.2 0.087726 35.871 0.254495 35.5804C0.421265 35.2899 0.661293 35.0478 0.950799 34.8781C12.307 28.4835 19.8741 15.2524 19.7854 1.94396C19.7794 1.4399 19.9723 0.953681 20.3225 0.590078C20.6728 0.226475 21.1523 0.0146305 21.6578 0.000180853C22.1595 -0.006618 22.6447 0.178502 23.0136 0.517479C23.3825 0.856455 23.607 1.3235 23.641 1.82249C24.0066 8.72518 24.3833 15.8488 26.7875 22.2987C29.3357 29.1793 34.133 34.2375 39.6061 35.839C40.022 35.9584 40.3854 36.214 40.6379 36.5644C40.8904 36.9148 41.0173 37.3397 40.9981 37.7707C40.9789 38.2017 40.8148 38.6138 40.5321 38.9405C40.2495 39.2673 39.8647 39.4897 39.4399 39.5719C34.6758 40.5107 30.1999 44.1995 27.1642 49.6775C24.3279 54.8131 22.9762 60.777 21.6246 66.5311C21.5267 66.9354 21.3 67.2971 20.9783 67.562C20.6567 67.8268 20.2575 67.9805 19.8408 68ZM5.5376 36.5458C12.4992 41.226 17.7328 48.049 20.4391 55.9728C21.2908 53.1366 22.4305 50.3945 23.8404 47.7889C26.1351 43.4242 29.6636 39.8262 33.9889 37.4404C28.963 34.1415 25.1758 29.2749 23.22 23.6019C22.3238 21.1515 21.6454 18.6273 21.1925 16.0586C18.2405 24.3455 12.7678 31.5075 5.5376 36.5458Z" fill="#EDB24E"/>
</symbol>

<symbol id="star-02" width="47" height="54" viewBox="0 0 47 54" fill="none" xmlns="http://www.w3.org/2000/svg">
    <path d="M19.5924 27.2823L1.34162 26.8051C1.16065 26.801 0.982273 26.761 0.816763 26.6875C0.651254 26.614 0.501882 26.5084 0.377241 26.3769C0.252601 26.2453 0.155116 26.0902 0.0904744 25.9208C0.0258329 25.7513 -0.00469419 25.5706 0.0005843 25.3893C-0.000758139 25.2059 0.0353175 25.0242 0.106651 24.8553C0.177984 24.6864 0.283051 24.5339 0.415357 24.4073C0.547664 24.2806 0.704422 24.1824 0.875996 24.1188C1.04757 24.0551 1.23032 24.0273 1.41301 24.0371L19.6638 24.5143C20.03 24.5143 20.3812 24.6602 20.6401 24.9197C20.8991 25.1793 21.0445 25.5313 21.0445 25.8983C21.0445 26.2654 20.8991 26.6174 20.6401 26.8769C20.3812 27.1365 20.03 27.2823 19.6638 27.2823H19.5924Z" fill="#EDB24E"/>
    <path d="M45.532 27.4493L32.8358 27.0754C32.6548 27.0703 32.4766 27.0293 32.3115 26.9549C32.1464 26.8804 31.9976 26.774 31.8737 26.6417C31.7498 26.5093 31.6532 26.3537 31.5895 26.1838C31.5258 26.0139 31.4963 25.8331 31.5027 25.6517C31.5211 25.2873 31.6791 24.9442 31.9437 24.6937C32.2083 24.4433 32.5592 24.3049 32.9231 24.3074L45.6193 24.6813C45.9855 24.6813 46.3367 24.8271 46.5956 25.0866C46.8545 25.3462 47 25.6982 47 26.0653C47 26.4324 46.8545 26.7844 46.5956 27.0439C46.3367 27.3035 45.9855 27.4493 45.6193 27.4493H45.532Z" fill="#EDB24E"/>
    <path d="M26.3607 19.2647C25.9965 19.2626 25.6477 19.1172 25.3895 18.8598C25.1312 18.6025 24.9842 18.2537 24.98 17.8887L24.8531 1.39198C24.853 1.02555 24.9971 0.673899 25.2541 0.413309C25.5111 0.152719 25.8603 0.00421078 26.2258 2.30023e-05C26.4068 -0.00102542 26.5861 0.0337751 26.7536 0.102458C26.9211 0.171142 27.0733 0.272367 27.2016 0.40025C27.33 0.528132 27.4318 0.680145 27.5013 0.847616C27.5708 1.01509 27.6065 1.19468 27.6065 1.37606L27.7335 17.9046C27.7356 18.0863 27.7019 18.2667 27.6345 18.4354C27.567 18.6042 27.4671 18.7579 27.3403 18.8879C27.2136 19.0179 27.0626 19.1216 26.8958 19.1931C26.7291 19.2646 26.55 19.3024 26.3687 19.3045L26.3607 19.2647Z" fill="#EDB24E"/>
    <path d="M26.4642 54C26.1021 54 25.7545 53.8575 25.4962 53.6031C25.238 53.3487 25.0897 53.0028 25.0835 52.6399L24.8137 33.5501C24.8084 33.1831 24.9489 32.829 25.2041 32.5657C25.4593 32.3024 25.8084 32.1515 26.1746 32.1462C26.5408 32.141 26.894 32.2818 27.1567 32.5376C27.4193 32.7934 27.5699 33.1433 27.5751 33.5104L27.8449 52.6001C27.847 52.7818 27.8134 52.9622 27.7459 53.1309C27.6785 53.2996 27.5785 53.4534 27.4518 53.5834C27.325 53.7134 27.174 53.817 27.0073 53.8885C26.8406 53.96 26.6614 53.9979 26.4801 54H26.4642Z" fill="#EDB24E"/>
</symbol>


</svg>